<?xml version="1.0" encoding="UTF-8"?>
<svg version="1.1" xmlns="http://www.w3.org/2000/svg" width="1254" height="1254" viewBox="0 0 1254 1254" fill="none">
<path d="M0 0 C0.03738281 1.06734375 0.07476562 2.1346875 0.11328125 3.234375 C1.46406102 35.80112019 8.35918205 72.67712338 23.7890625 101.62109375 C25.026049 104.05117368 26.08459234 106.53259073 27.14697266 109.04272461 C39.32706596 136.99000795 56.38169733 162.95855536 75 187 C75.81722401 188.07229392 76.63359283 189.14524001 77.44921875 190.21875 C86.26148865 201.79057155 95.58253324 212.91986325 105 224 C110.19219022 230.10888035 115.38123581 236.21510641 120.4375 242.4375 C123.91072357 246.70744869 127.46797164 250.89499576 131.0625 255.0625 C134.42936351 258.96604911 137.74776752 262.88640516 140.9375 266.9375 C144.85266961 271.89671484 148.9968427 276.64052204 153.14990234 281.39990234 C157.0904112 285.92469748 160.91516316 290.52826569 164.69140625 295.19140625 C167.41344746 298.50299276 170.20163613 301.75291634 173 305 C179.9711767 313.10032648 186.93041841 321.18931705 193 330 C191.58847015 325.25212688 189.62425195 320.87006395 187.55078125 316.38671875 C186.38200426 313.83425113 185.2349963 311.2768051 184.10546875 308.70703125 C183.60478882 307.56911133 183.60478882 307.56911133 183.09399414 306.40820312 C182.40595693 304.84354951 181.71894603 303.27844418 181.03295898 301.71289062 C178.58539917 296.17775655 175.90355907 290.85463481 172.93359375 285.578125 C171.71891207 282.22377391 171.98318296 280.40567103 173 277 C175.58311744 272.99316435 178.8120238 269.53695584 182 266 C182.83015625 265.07445312 183.6603125 264.14890625 184.515625 263.1953125 C199.91157292 246.92354719 222.79976525 234.30145987 245.50097656 232.83886719 C265.17191887 232.52593692 281.88119137 234.14900451 300 242 C301.07121094 242.4640625 302.14242187 242.928125 303.24609375 243.40625 C324.95827216 253.5705988 341.64946101 271.63895142 352 293 C352.44096935 294.30700008 352.88111471 295.61427855 353.3203125 296.921875 C354.15175781 298.44554687 354.15175781 298.44554687 355 300 C360.07985824 301.12018419 365.18344004 301.17332069 370.36328125 301.203125 C371.1541362 301.20882507 371.94499115 301.21452515 372.7598114 301.22039795 C374.43141362 301.22980253 376.10303401 301.23636375 377.7746582 301.24023438 C380.26744444 301.24982663 382.75936379 301.28084493 385.25195312 301.3125 C396.45591438 301.38407219 407.0170864 300.19112968 418 298 C411.09236182 312.82181793 392.87953257 323.17953146 378.51171875 329.4609375 C373.92052588 331.47309545 369.46310834 333.72118939 365 336 C376.41906889 340.44074901 388.68509419 340.38105919 400.75 340.625 C402.3333523 340.66328598 403.91668614 340.70234338 405.5 340.7421875 C409.33317911 340.83700021 413.16645481 340.92143851 417 341 C403.42472069 354.76106851 385.86240793 362.90659958 367.6875 368.6875 C366.62789062 369.02769165 366.62789062 369.02769165 365.546875 369.37475586 C362.58776997 370.3008961 360.12003136 371 357 371 C356.83455688 371.81573486 356.83455688 371.81573486 356.66577148 372.64794922 C345.899678 423.59473895 309.34022082 472.8751103 270 506 C269.10667969 506.75925781 268.21335937 507.51851562 267.29296875 508.30078125 C261.48200367 513.19783308 255.58009492 517.93520882 249.51391602 522.51293945 C246.61001246 524.71385288 243.88823249 526.98971874 241.25 529.5 C238.16621168 532.25393036 235.27580611 532.8669297 231.2109375 533.28515625 C226.57465541 534.78416618 224.06743205 538.60778172 221.8671875 542.7421875 C221.19272576 544.11473025 220.52878558 545.492489 219.875 546.875 C219.54113281 547.55691406 219.20726562 548.23882813 218.86328125 548.94140625 C217.30891563 552.14157076 215.86038349 555.33990407 214.5078125 558.6328125 C211.17181237 566.08263663 206.76898414 570.13408547 200.375 574.9375 C199.61832031 575.51951172 198.86164062 576.10152344 198.08203125 576.70117188 C191.7027807 581.57466024 191.7027807 581.57466024 188.37353516 583.58959961 C181.07653857 588.09912449 178.54350349 592.74626154 175.625 600.6875 C174.70219028 603.02800267 173.77765181 605.36782431 172.8515625 607.70703125 C172.38524414 608.91182129 171.91892578 610.11661133 171.43847656 611.35791016 C169.10694316 617.26113745 166.5393182 623.0589705 164 628.875 C154.91492948 649.96041182 146.68767021 671.36857906 139 693 C139.53367187 692.33355469 140.06734375 691.66710937 140.6171875 690.98046875 C144.57489109 686.08469354 148.56682792 681.34124107 152.875 676.75 C156.76659649 672.55259239 160.04989326 668.17952032 163.3125 663.5 C168.19311369 656.57786238 173.69497794 651.57092205 180.31860352 646.33081055 C180.87346436 645.89164307 181.4283252 645.45247559 182 645 C182.65734131 644.49186768 183.31468262 643.98373535 183.99194336 643.46020508 C189.2791616 639.1592552 192.24166035 634.78994653 195.1875 628.6875 C195.58646484 627.89666016 195.98542969 627.10582031 196.39648438 626.29101562 C198.8529164 621.40653215 198.8529164 621.40653215 201.08959961 616.41918945 C204.13864702 609.51251108 207.99138348 605.99852538 214.1875 601.8125 C215.03739502 601.2050293 215.88729004 600.59755859 216.76293945 599.97167969 C220.16904958 597.55155739 223.5557515 595.25315631 227.1875 593.18359375 C234.27424927 589.11978597 236.16146151 583.78427618 239.11743164 576.48779297 C241.67261104 570.31421374 243.94203053 567.06414708 250 564 C252.10421474 562.77091563 254.20837549 561.54173883 256.3125 560.3125 C257.52856913 559.6277539 258.74608075 558.94556478 259.96484375 558.265625 C264.46543983 555.75022336 268.91839186 553.15477388 273.375 550.5625 C276.58149337 548.7051392 279.79017394 546.85159472 283 545 C283.77359863 544.55350098 284.54719727 544.10700195 285.34423828 543.64697266 C287.538769 542.38390977 289.73732376 541.12819711 291.9375 539.875 C292.59347168 539.49674072 293.24944336 539.11848145 293.92529297 538.72875977 C296.89567197 537.0462237 299.60626942 535.56136897 303 535 C303 534.34 303 533.68 303 533 C302.13761719 532.88398437 301.27523437 532.76796875 300.38671875 532.6484375 C296.94446066 531.98936617 294.04139312 530.97548762 290.8125 529.625 C289.78769531 529.20476563 288.76289062 528.78453125 287.70703125 528.3515625 C285.1959393 527.09782828 283.88397004 526.00389989 282 524 C294.74121268 520.52315009 307.48646975 517.0891233 320.3125 513.9375 C328.61359828 511.89471505 336.83377031 509.6609889 345.03686523 507.25634766 C352.93946321 504.96192369 360.91283954 502.98699468 368.91992188 501.09179688 C374.22119933 499.81044545 379.06461786 498.33021525 384 496 C374.91039176 488.78239345 362.84921383 485.70119722 352 482 C352 481.34 352 480.68 352 480 C363.01545936 477.5444991 374.05756685 475.43426224 385.1875 473.5625 C394.08275827 472.06302181 402.93014087 470.45646461 411.75 468.5625 C422.27296634 466.3089652 432.83957872 464.34895814 443.4309082 462.44824219 C444.85759612 462.19212123 446.28427231 461.935935 447.7109375 461.6796875 C448.43913193 461.54892822 449.16732635 461.41816895 449.91758728 461.28344727 C455.96255847 460.19452212 462.00144115 459.07421758 468.0390625 457.9453125 C469.45650002 457.68041771 469.45650002 457.68041771 470.90257263 457.41017151 C474.65216452 456.70898351 478.40165532 456.00728089 482.15054321 455.30233765 C494.07904794 453.0596465 506.01951274 450.94635323 518 449 C519.0098999 448.8357251 520.0197998 448.6714502 521.06030273 448.50219727 C521.90665283 448.36483154 522.75300293 448.22746582 523.625 448.0859375 C524.37007812 447.96476562 525.11515625 447.84359375 525.8828125 447.71875 C527.3564032 447.47949542 528.83039438 447.24269988 530.3046875 447.0078125 C534.271403 446.40327962 534.271403 446.40327962 538 445 C539.31537232 444.73849848 540.63867357 444.51605601 541.96484375 444.31640625 C543.15750854 444.13331909 543.15750854 444.13331909 544.37426758 443.9465332 C545.22013428 443.81980225 546.06600098 443.69307129 546.9375 443.5625 C552.4142537 442.72612316 557.87255254 441.86733746 563.3125 440.8125 C566.92556965 440.13153204 570.30819956 439.80044322 574 440 C571.24190314 442.75809686 567.98222505 443.59930176 564.375 444.875 C562.6168037 445.51065819 560.85902057 446.14745987 559.1015625 446.78515625 C558.12477539 447.13852051 557.14798828 447.49188477 556.14160156 447.85595703 C550.33094322 449.97196146 544.54017811 452.14120587 538.75 454.3125 C537.77175262 454.67918793 537.77175262 454.67918793 536.77374268 455.05328369 C523.41219456 460.06552532 510.07909453 465.15219253 496.75 470.25 C495.7662439 470.62573151 494.78248779 471.00146301 493.7689209 471.38858032 C489.01285706 473.20580439 484.26009936 475.03078969 479.51367188 476.87304688 C475.81315445 478.30898536 472.1008404 479.70596794 468.37695312 481.08007812 C466.58967562 481.75606607 464.80255924 482.43248018 463.015625 483.109375 C462.2080072 483.39854797 461.4003894 483.68772095 460.56829834 483.98565674 C454.94041995 486.15045417 450.63548559 489.1067938 447 494 C446.84062486 497.34687787 447.83034097 498.72175919 449.5625 501.5625 C451 504 451 504 451 508 C449.80346802 508.45886597 449.80346802 508.45886597 448.58276367 508.92700195 C412.20012337 522.74874025 412.20012337 522.74874025 376.4375 538.0625 C372.24782321 539.95240855 367.95717044 541.46389404 363.625 542.9921875 C361.2724595 543.89539501 359.14676272 544.92237715 356.9375 546.125 C353.25443151 548.05636518 349.7272243 548.73428487 345.65234375 549.4375 C341.83344781 550.2473984 338.27970146 551.60538387 334.640625 553 C332 554 332 554 328.91796875 554.859375 C325.58087664 556.16383403 324.33215565 557.52084351 322.0625 560.25 C317.89631385 564.5958227 313.97775627 566.58535948 308.35595703 568.62451172 C299.77108735 571.73997165 291.62154956 575.7414169 283.44726562 579.79785156 C281.2544978 580.87498532 279.04583968 581.90537647 276.828125 582.9296875 C269.43115763 586.52453845 265.57447085 590.50557672 261.95581055 597.78710938 C258.4843315 604.55735708 253.29637831 608.05507351 247 612 C245.61587513 612.8880048 244.23176106 613.77602644 242.84765625 614.6640625 C232.00293476 621.55764454 232.00293476 621.55764454 228.42584229 623.13536072 C225.68567417 624.82151406 225.68567417 624.82151406 225.36076355 628.09416199 C225.35410172 629.36657242 225.34743988 630.63898285 225.34057617 631.94995117 C225.33006131 632.66399014 225.31954645 633.37802912 225.30871296 634.11370564 C225.28032619 636.42391931 225.28600287 638.73261932 225.29296875 641.04296875 C225.28044487 642.46962598 225.26568843 643.89626543 225.24865723 645.32287598 C225.20120105 650.61091034 225.19697652 655.89926119 225.1875 661.1875 C225.125625 673.005625 225.06375 684.82375 225 697 C258.99 697 292.98 697 328 697 C321.33567663 704.77504394 321.33567663 704.77504394 318.0625 707.9375 C315.46249847 710.49818204 312.99651376 713.10172391 310.625 715.875 C307.88378551 719.06682509 304.99314112 722.04302977 302 725 C299.08946199 727.87557659 296.27575978 730.75874094 293.625 733.875 C290.58569233 737.43286253 287.32635654 740.71441388 284 744 C280.7361675 747.22397498 277.53169814 750.435179 274.5625 753.9375 C270.91441827 758.23094262 266.90792489 762.1472711 262.88110352 766.08178711 C260.03145067 768.88621428 257.32176444 771.74541583 254.71875 774.78125 C249.60375924 780.70059147 243.95231076 786.09175358 238.3828125 791.578125 C233.97665649 795.9441033 229.7440514 800.36203139 225.70703125 805.0703125 C222.0074877 809.25240521 217.94511855 813.09214426 213.9609375 817 C210.72440659 820.19904214 207.58786975 823.4194751 204.625 826.875 C199.54865146 832.76862914 193.9203192 838.12326765 188.3828125 843.578125 C183.97665649 847.9441033 179.7440514 852.36203139 175.70703125 857.0703125 C172.0074877 861.25240521 167.94511855 865.09214426 163.9609375 869 C160.74770147 872.17601708 157.63230708 875.37016446 154.6953125 878.8046875 C150.05095438 884.19720087 144.93873327 889.1318063 139.875 894.125 C131.57485512 902.22919637 131.57485512 902.22919637 124 911 C120.76951252 909.5800745 118.61757512 907.86380613 116.13671875 905.3671875 C115.41419922 904.64273438 114.69167969 903.91828125 113.94726562 903.171875 C113.20154297 902.41390625 112.45582031 901.6559375 111.6875 900.875 C110.58631836 899.77285156 110.58631836 899.77285156 109.46289062 898.6484375 C106.10548551 895.2642208 102.83189612 891.85421111 99.73828125 888.2265625 C94.65992282 882.33686009 89.02912238 876.96143857 83.5 871.5 C81.29902946 869.32597227 79.10164212 867.14840934 76.90625 864.96875 C76.17311584 864.24806335 76.17311584 864.24806335 75.4251709 863.51281738 C72.69614076 860.80267008 70.11463044 858.01333542 67.60009766 855.10229492 C64.0647187 851.02178818 60.32383724 847.19566901 56.4921875 843.39453125 C55.80367706 842.70743576 55.11516663 842.02034027 54.40579224 841.31242371 C52.23122673 839.14339384 50.05319614 836.97788322 47.875 834.8125 C46.40731851 833.34984371 44.93986866 831.88695496 43.47265625 830.42382812 C40.78121351 827.740504 38.08845991 825.05851136 35.39404297 822.37817383 C34.81045013 821.79690735 34.2268573 821.21564087 33.62557983 820.61676025 C32.18515218 819.18414764 30.74035565 817.75593068 29.29492188 816.32836914 C27.12489316 814.12671341 25.07533582 811.86415469 23.0390625 809.5390625 C17.08447321 802.88422337 10.72301821 796.65048917 4.375 790.375 C-9.09486541 777.05811846 -9.09486541 777.05811846 -14.38037109 770.84228516 C-17.56769081 767.21679306 -21.05753262 763.88088478 -24.5 760.5 C-29.26857774 755.81672776 -33.84975966 751.08033648 -38.20898438 746.01367188 C-41.47191 742.34510446 -44.99848712 738.93887401 -48.5 735.5 C-53.26633448 730.8189309 -57.86962243 726.09203884 -62.22705078 721.02685547 C-66.1108789 716.58681953 -70.23487379 712.36248707 -74.30273438 708.09179688 C-74.98013672 707.37701172 -75.65753906 706.66222656 -76.35546875 705.92578125 C-76.96028076 705.29067627 -77.56509277 704.65557129 -78.18823242 704.0012207 C-80.22384007 701.75275339 -82.10527781 699.36840274 -84 697 C-49.68 697 -15.36 697 20 697 C20.226875 683.078125 20.45375 669.15625 20.6875 654.8125 C20.80826904 650.44104736 20.92903809 646.06959473 21.0534668 641.56567383 C22.02946397 624.13387121 22.02946397 624.13387121 17.11676025 607.93109131 C12.72883153 603.47140144 7.88030006 601.14909438 2.0818634 598.99620056 C-1.31158371 597.37238897 -2.36798672 595.33406528 -4 592 C-4.19207031 591.01128906 -4.38414062 590.02257812 -4.58203125 589.00390625 C-6.96886009 583.94751126 -11.83655995 582.36297002 -16.6875 579.9375 C-18.88000658 578.79768698 -21.07138533 577.65570228 -23.26171875 576.51171875 C-24.38239746 575.93212402 -25.50307617 575.3525293 -26.65771484 574.75537109 C-31.83742136 572.03498469 -36.91886927 569.14922839 -42 566.25 C-43.91009924 565.16526419 -45.82025402 564.08062616 -47.73046875 562.99609375 C-48.62813965 562.48546387 -49.52581055 561.97483398 -50.45068359 561.44873047 C-54.0661336 559.39413553 -57.68805018 557.35116734 -61.3125 555.3125 C-61.9314917 554.96405029 -62.5504834 554.61560059 -63.18823242 554.2565918 C-66.74391199 552.25805626 -70.30694813 550.27324123 -73.875 548.296875 C-74.69701904 547.84143311 -75.51903809 547.38599121 -76.3659668 546.91674805 C-77.96047722 546.03412662 -79.55566014 545.15271866 -81.15161133 544.27270508 C-81.8711499 543.87462646 -82.59068848 543.47654785 -83.33203125 543.06640625 C-83.96858643 542.71521729 -84.6051416 542.36402832 -85.26098633 542.00219727 C-86.88117167 541.06848102 -88.44408229 540.03727847 -90 539 C-92.63526438 538.47227942 -92.63526438 538.47227942 -95.66796875 538.16796875 C-116.89638149 535.44322695 -136.30688012 529.49629323 -156.49951172 522.5390625 C-162.44919913 520.49413661 -168.43846134 518.58257246 -174.4375 516.6875 C-176.3517131 516.07729515 -178.2657783 515.46662613 -180.1796875 514.85546875 C-181.11264648 514.55817871 -182.04560547 514.26088867 -183.00683594 513.95458984 C-188.69352139 512.14097319 -194.37779989 510.31982794 -200.0625 508.5 C-202.17837639 507.82288847 -204.29426092 507.14580234 -206.41015625 506.46875 C-207.94010417 505.97916667 -209.47005208 505.48958333 -211 505 C-211.03303223 504.18015625 -211.06606445 503.3603125 -211.10009766 502.515625 C-211.16245605 501.43796875 -211.22481445 500.3603125 -211.2890625 499.25 C-211.36954834 497.64898438 -211.36954834 497.64898438 -211.45166016 496.015625 C-212.24596904 491.6472798 -214.09656758 489.94124024 -217.59375 487.36645508 C-219.99294002 486.0040092 -222.27041961 485.03983087 -224.875 484.13671875 C-226.32592041 483.6269751 -226.32592041 483.6269751 -227.80615234 483.10693359 C-228.86012207 482.74164551 -229.9140918 482.37635742 -231 482 C-233.32590821 481.17426744 -235.65140881 480.34738608 -237.9765625 479.51953125 C-239.86851017 478.8497105 -241.76046086 478.1798982 -243.65255737 477.51049805 C-254.42331855 473.69899541 -265.18726173 469.8690785 -275.9375 466 C-276.94184082 465.6388208 -277.94618164 465.2776416 -278.98095703 464.90551758 C-284.33566241 462.97535435 -289.67228259 461.00323011 -295 459 C-300.00083624 457.1233457 -305.00346731 455.25155482 -310.0078125 453.38427734 C-311.58279569 452.79593276 -313.1573426 452.20641889 -314.73144531 451.61572266 C-317.03597838 450.75116192 -319.34170957 449.88993675 -321.6484375 449.03125 C-322.38326355 448.75764648 -323.1180896 448.48404297 -323.87518311 448.20214844 C-328.63910687 446.44823512 -333.41713208 444.89919142 -338.33447266 443.62304688 C-340 443 -340 443 -341 441 C-328.48250224 442.61558471 -316.01654319 444.45045323 -303.5625 446.5 C-294.53774348 447.98503981 -285.51620371 449.38203317 -276.4375 450.5 C-266.14960456 451.76858678 -255.94071649 453.44675836 -245.72631836 455.19921875 C-232.46680113 457.46914897 -219.17151129 459.27176544 -205.81445312 460.85546875 C-200.00914272 461.5625989 -194.28554284 462.46727781 -188.53881836 463.54931641 C-184.99224686 464.17889338 -181.45809366 464.56351905 -177.875 464.9375 C-170.52771571 465.7461321 -163.29545209 466.94093683 -156.02734375 468.2734375 C-151.3102427 469.13683043 -146.57463035 469.86171971 -141.83203125 470.5703125 C-138.88276934 471.01778672 -135.94132488 471.50324291 -133 472 C-136.34691588 474.23127725 -139.71611628 475.38532762 -143.5 476.625 C-144.17675781 476.85445312 -144.85351562 477.08390625 -145.55078125 477.3203125 C-148.48612014 478.29296917 -150.88708081 479 -154 479 C-154.33 480.98 -154.66 482.96 -155 485 C-154.46152939 485.0976062 -153.92305878 485.1952124 -153.36827087 485.29577637 C-142.55678095 487.25639858 -131.74716244 489.22675248 -120.94140625 491.21875 C-119.42019669 491.49900024 -119.42019669 491.49900024 -117.86825562 491.78491211 C-113.73260643 492.54687414 -109.59697429 493.30892239 -105.46166992 494.07275391 C-90.65646749 496.80663265 -75.83812728 499.45067709 -61 502 C-61 502.66 -61 503.32 -61 504 C-62.09699219 504.40992188 -63.19398438 504.81984375 -64.32421875 505.2421875 C-65.77865686 505.78642886 -67.23308333 506.33070133 -68.6875 506.875 C-69.40873047 507.14441406 -70.12996094 507.41382813 -70.87304688 507.69140625 C-74.59946483 509.08668603 -78.31324655 510.50202917 -82 512 C-74.15381794 515.49214542 -66.27593545 518.26201907 -58.0546875 520.69140625 C-55.15321806 521.58413869 -52.3740499 522.64199598 -49.5703125 523.8046875 C-42.9249035 526.5121938 -36.09893052 528.65133421 -29.26855469 530.83666992 C-27.00340566 531.56141035 -24.73986018 532.2909852 -22.4765625 533.02148438 C-15.00764 535.42707936 -7.53168199 537.79670544 0 540 C0 540.66 0 541.32 0 542 C-1.76494494 543.3956731 -3.58808217 544.71836522 -5.4375 546 C-9.32727075 548.45900384 -9.32727075 548.45900384 -12 552 C-11.0409375 552.33064453 -11.0409375 552.33064453 -10.0625 552.66796875 C-5.81001075 554.51758461 -1.95199115 556.89703788 2 559.3125 C2.7940625 559.78623047 3.588125 560.25996094 4.40625 560.74804688 C14.22012203 566.72633059 18.19679856 573.62322466 23.09960938 583.80859375 C26.83990477 591.09102319 30.99877316 594.8602169 38 599 C39.2554478 599.78845891 40.50839315 600.58092885 41.7578125 601.37890625 C42.31645996 601.73557373 42.87510742 602.09224121 43.45068359 602.4597168 C50.62535276 607.18528994 54.35222751 611.82807652 57.9609375 619.60546875 C61.4042865 625.33778729 66.44330026 629.04179363 71.97265625 632.68359375 C84.43453738 640.93660525 90.91198177 651.29778412 98.28076172 664.09619141 C100.80888533 668.36621444 103.58916578 672.43904107 106.4375 676.5 C106.90462402 677.1700708 107.37174805 677.8401416 107.85302734 678.53051758 C108.89725913 680.0236846 109.94777875 681.51245228 111 683 C109.1344661 675.865394 107.033998 668.87599146 104.59375 661.91796875 C104.27243607 660.99300095 103.95112213 660.06803314 103.62007141 659.11503601 C102.5841912 656.1377269 101.54250786 653.1624943 100.5 650.1875 C100.14473236 649.17020813 99.78946472 648.15291626 99.4234314 647.10479736 C94.96337014 634.33376761 90.46123934 621.5786872 85.8125 608.875 C85.39226562 607.72410889 84.97203125 606.57321777 84.5390625 605.38745117 C83.38092818 602.24966614 82.19362081 599.12442625 81 596 C80.61416748 594.93724854 80.22833496 593.87449707 79.83081055 592.77954102 C77.29266005 586.13122091 74.66309692 581.72412602 69.1875 577.1875 C68.57237549 576.64327393 67.95725098 576.09904785 67.32348633 575.53833008 C64.72067517 573.2479796 62.06676825 571.05262909 59.34375 568.90625 C53.64780959 564.36600764 53.64780959 564.36600764 53.0625 559.625 C53.0315625 557.830625 53.0315625 557.830625 53 556 C52.67 555.67 52.34 555.34 52 555 C51.95101563 554.21753906 51.90203125 553.43507813 51.8515625 552.62890625 C51.35006384 545.84138134 49.99606712 542.28514313 44.875 537.6875 C42.93455216 536.10284298 40.97712124 534.53865762 39 533 C37.63706085 531.82257888 36.28182944 530.63612503 34.9375 529.4375 C32.81804467 527.5704644 30.6849543 525.74295023 28.49609375 523.95703125 C23.23748742 519.52914365 19.81002489 515.54893138 16.78125 509.39453125 C14.3185952 504.70144568 11.47422519 500.2785179 8.625 495.8125 C8.07602051 494.94963379 7.52704102 494.08676758 6.96142578 493.19775391 C5.64377408 491.13000953 4.32339461 489.0640718 3 487 C-1.92283835 488.51912916 -6.086773 490.61387895 -10.53515625 493.171875 C-13.8167531 494.27440833 -14.91900512 493.47535771 -18 492 C-19.56805484 490.93969785 -21.09718645 489.82029932 -22.58984375 488.65625 C-23.44916504 487.99222168 -24.30848633 487.32819336 -25.19384766 486.64404297 C-26.55195557 485.5827417 -26.55195557 485.5827417 -27.9375 484.5 C-29.83862062 483.03226851 -31.74096454 481.56612016 -33.64453125 480.1015625 C-34.5670166 479.39161133 -35.48950195 478.68166016 -36.43994141 477.95019531 C-39.62319789 475.5252618 -42.85372818 473.179199 -46.125 470.875 C-60.31910689 460.85091321 -74.17755275 450.38155905 -87.98046875 439.828125 C-92.4670704 436.40015969 -96.97718351 433.00497798 -101.5 429.625 C-108.38215485 424.4788224 -115.20005749 419.25411707 -122 414 C-124.16578906 412.33219152 -126.3329232 410.66613471 -128.5 409 C-129.58985595 408.16147419 -130.67969973 407.32293256 -131.76953125 406.484375 C-133.87008508 404.8684674 -135.97182984 403.25414838 -138.07421875 401.640625 C-144.31787637 396.84624801 -150.54023819 392.02570751 -156.75 387.1875 C-162.79692422 382.47962927 -168.85478871 377.78656812 -174.9375 373.125 C-175.98780396 372.3194165 -175.98780396 372.3194165 -177.05932617 371.49755859 C-182.02213162 367.70700913 -187.06028102 364.04880945 -192.19140625 360.48828125 C-192.78824219 359.99714844 -193.38507813 359.50601562 -194 359 C-194 358.34 -194 357.68 -194 357 C-193.01773438 357.40605469 -193.01773438 357.40605469 -192.015625 357.8203125 C-189.02336169 358.9908611 -186.0103631 360.05562798 -182.97436523 361.10546875 C-171.90871761 364.93368973 -171.90871761 364.93368973 -167.4375 367 C-135.85276916 381.54559973 -99.39938744 391.23356375 -65 396 C-63.22846558 396.26707764 -63.22846558 396.26707764 -61.42114258 396.53955078 C-48.77133812 398.32856422 -36.18976747 398.22814692 -23.4375 398.125 C-21.25065518 398.11494107 -19.06380584 398.10582041 -16.87695312 398.09765625 C-11.5845346 398.07589456 -6.29228931 398.04265206 -1 398 C-3.95501952 394.98624036 -6.95192511 392.47586787 -10.375 390 C-26.66745264 377.89476722 -40.85766882 364.28735965 -53 348 C-53.74894531 347.01902344 -54.49789063 346.03804687 -55.26953125 345.02734375 C-74.80324615 318.31366879 -85.42798298 287.00224303 -85 254 C-83.85329616 254.85299768 -82.70771066 255.70749867 -81.5625 256.5625 C-80.45455078 257.38814453 -80.45455078 257.38814453 -79.32421875 258.23046875 C-77.84893125 259.35367083 -76.39063589 260.49984169 -74.95703125 261.67578125 C-65.67147113 269.25405264 -46.55510277 283 -34 283 C-34.680625 282.319375 -35.36125 281.63875 -36.0625 280.9375 C-36.52527344 280.47085937 -36.98804688 280.00421875 -37.46484375 279.5234375 C-38.46232519 278.53357042 -39.47479441 277.55850286 -40.50390625 276.6015625 C-46.73434243 270.6864014 -51.82602258 263.82948907 -57 257 C-57.63035156 256.17628906 -58.26070313 255.35257813 -58.91015625 254.50390625 C-81.46269751 223.74074713 -89.36470288 187.42383963 -83.6875 149.875 C-82.6225456 143.41350071 -81.16678314 137.19080898 -79 131 C-76.17826369 133.62383172 -73.95984039 136.37782745 -71.8046875 139.56787109 C-63.35731266 152.06061542 -53.14788485 163.04834887 -41 172 C-41.2945105 171.11646851 -41.2945105 171.11646851 -41.5949707 170.21508789 C-46.17578125 156.47265625 -46.17578125 156.47265625 -47.1027832 153.68237305 C-47.67455191 151.97297908 -48.25310425 150.26582859 -48.84057617 148.56176758 C-55.93794783 127.85723457 -56.53752843 104.14935559 -51 83 C-50.82839355 82.32211426 -50.65678711 81.64422852 -50.47998047 80.94580078 C-45.75120926 62.51669333 -22.45905015 0 0 0 Z " fill="#FCFCFC" transform="translate(509,177)"/>
<path d="M0 0 C1.74431209 3.48862418 -0.456753 7.23893362 -1.60546875 10.78515625 C-2.02618401 12.11878456 -2.02618401 12.11878456 -2.45539856 13.47935486 C-3.3591252 16.342669 -4.27230091 19.20283376 -5.1875 22.0625 C-13.73137613 47.52852859 -13.73137613 47.52852859 -16.3125 74.0625 C-16.30283203 75.19792236 -16.29316406 76.33334473 -16.28320312 77.50317383 C-16.20938872 83.28757555 -15.95240534 89.0235565 -15.48046875 94.7890625 C-15.36288208 96.40542603 -15.36288208 96.40542603 -15.24291992 98.05444336 C-15.08550474 100.08470366 -14.89127101 102.11257757 -14.65356445 104.13500977 C-14.33410495 108.24972031 -14.18544768 110.86766161 -16.65332031 114.29833984 C-18.68409271 116.32864281 -20.78829811 118.17074269 -23 120 C-24.27042393 121.3983803 -25.52745398 122.80957449 -26.75 124.25 C-28.49674506 126.30200148 -29.97547785 127.98208508 -32.16015625 129.578125 C-35.11934071 133.47344212 -34.55351922 137.73734016 -34.6875 142.5 C-35.27954254 153.02205461 -37.54300071 158.3775724 -45 166 C-48.31887522 169.66946623 -49.68390105 172.49189819 -50.7109375 177.3203125 C-50.98325195 178.56522461 -51.25556641 179.81013672 -51.53613281 181.09277344 C-51.81591183 182.43681636 -52.09553055 183.78089267 -52.375 185.125 C-52.67406297 186.51104343 -52.97453699 187.8967831 -53.27636719 189.28222656 C-53.8932822 192.12259586 -54.5030046 194.96435513 -55.10644531 197.80761719 C-56.45003924 204.13004793 -57.85152569 210.43950706 -59.25 216.75 C-59.60070557 218.36092529 -59.60070557 218.36092529 -59.95849609 220.00439453 C-61.43636826 226.73151631 -63.12298784 233.37313158 -65 240 C-65.33 240 -65.66 240 -66 240 C-70.002676 176.54103624 -70.002676 176.54103624 -71.25 154.875 C-71.29074646 154.1769223 -71.33149292 153.4788446 -71.37347412 152.75961304 C-71.48530285 150.83725002 -71.59429987 148.91472289 -71.703125 146.9921875 C-71.76145508 145.96464355 -71.81978516 144.93709961 -71.87988281 143.87841797 C-71.91952148 142.92854004 -71.95916016 141.97866211 -72 141 C-72.07951904 139.43511841 -72.07951904 139.43511841 -72.16064453 137.83862305 C-71.98937269 134.81221326 -71.65157842 133.84440826 -69.7265625 131.58984375 C-69.23663818 130.99937256 -68.74671387 130.40890137 -68.24194336 129.80053711 C-67.4415564 128.87833374 -67.4415564 128.87833374 -66.625 127.9375 C-65.51317921 126.60512022 -64.40251993 125.27177041 -63.29296875 123.9375 C-62.73528809 123.27492188 -62.17760742 122.61234375 -61.60302734 121.9296875 C-58.4969415 118.1906527 -55.58518737 114.30708935 -52.68212891 110.40942383 C-50.93506678 108.11987311 -49.10465305 106.02422727 -47.09399414 103.96362305 C-41.98463839 98.53089169 -38.35642625 94.00230332 -38.3936615 86.29972839 C-38.6286968 82.30449327 -39.01033705 78.34679963 -39.5 74.375 C-41.55782806 57.60925843 -41.55782806 57.60925843 -37.79736328 52.45751953 C-35.11298345 49.35965418 -32.06877123 46.70974917 -29 44 C-27.82996187 42.64221156 -26.69401559 41.25314883 -25.6171875 39.8203125 C-25.15731445 39.20913574 -24.69744141 38.59795898 -24.22363281 37.96826172 C-23.77858398 37.35998535 -23.33353516 36.75170898 -22.875 36.125 C-22.37838867 35.45355957 -21.88177734 34.78211914 -21.37011719 34.09033203 C-13.41191218 23.2175304 -6.55769477 11.7573928 0 0 Z " fill="#060505" transform="translate(709,576)"/>
<path d="M0 0 C32.34 0 64.68 0 98 0 C98 0.33 98 0.66 98 1 C96.85185822 1.00586624 95.70371643 1.01173248 94.52078247 1.01777649 C83.71961586 1.07490015 72.91865259 1.14760698 62.11769295 1.23571491 C56.56431646 1.28051137 51.01101491 1.31974682 45.45751953 1.34643555 C40.10169141 1.37237624 34.74615028 1.41271246 29.39049911 1.46318626 C27.34353063 1.4799177 25.29651243 1.49139272 23.24948502 1.49761391 C20.39013573 1.50718702 17.53153115 1.53516375 14.67236328 1.56762695 C13.81928589 1.56619186 12.9662085 1.56475677 12.08728027 1.5632782 C9.49771115 1.56969668 9.49771115 1.56969668 6 2 C5.01 3.485 5.01 3.485 4 5 C2.68 3.35 1.36 1.7 0 0 Z " fill="#F2F2F2" transform="translate(425,874)"/>
<path d="M0 0 C0.66 0.33 1.32 0.66 2 1 C1.15695312 1.81984375 0.31390625 2.6396875 -0.5546875 3.484375 C-1.66172316 4.57264734 -2.76847939 5.66120398 -3.875 6.75 C-4.43058594 7.28882813 -4.98617187 7.82765625 -5.55859375 8.3828125 C-8.31346676 11.10449427 -10.4650695 13.38887404 -12 17 C-14.36084173 19.58217064 -16.85152691 21.86953073 -19.48046875 24.1796875 C-20.37378906 24.96601562 -21.26710938 25.75234375 -22.1875 26.5625 C-23.47720703 27.67818359 -23.47720703 27.67818359 -24.79296875 28.81640625 C-26.8866009 30.88780514 -27.71856829 32.42144558 -29 35 C-30.9453125 36.703125 -30.9453125 36.703125 -33.125 38.25 C-34.21167969 39.03117188 -34.21167969 39.03117188 -35.3203125 39.828125 C-35.87460937 40.21484375 -36.42890625 40.6015625 -37 41 C-37.66 40.67 -38.32 40.34 -39 40 C-38.24904053 39.25427734 -37.49808105 38.50855469 -36.72436523 37.74023438 C-33.9056626 34.93980261 -31.09041081 32.13592255 -28.27612305 29.33105469 C-27.06382752 28.12374935 -25.8506313 26.91734766 -24.63647461 25.71191406 C-15.74506216 16.91887896 -15.74506216 16.91887896 -7.39453125 7.6171875 C-5.07598069 4.9284482 -2.54018956 2.47823372 0 0 Z " fill="#1A1A1A" transform="translate(778,936)"/>
<path d="M0 0 C21.78 0 43.56 0 66 0 C64.68 1.32 63.36 2.64 62 4 C61.505 3.01 61.505 3.01 61 2 C30.805 1.505 30.805 1.505 0 1 C0 0.67 0 0.34 0 0 Z " fill="#F1F1F1" transform="translate(771,874)"/>
<path d="M0 0 C3.64778832 0.44358386 7.29272927 0.90731813 10.9375 1.375 C11.97841797 1.50132812 13.01933594 1.62765625 14.09179688 1.7578125 C15.08115234 1.88671875 16.07050781 2.015625 17.08984375 2.1484375 C18.46450806 2.32125244 18.46450806 2.32125244 19.86694336 2.49755859 C20.57085205 2.66336426 21.27476074 2.82916992 22 3 C22.33 3.66 22.66 4.32 23 5 C22.34 5 21.68 5 21 5 C21 5.99 21 6.98 21 8 C18.62828053 7.28848416 16.2568526 6.57616298 13.88671875 5.859375 C11.97743591 5.29098227 10.06330707 4.73859732 8.14453125 4.203125 C7.25121094 3.95046875 6.35789063 3.6978125 5.4375 3.4375 C4.61121094 3.20933594 3.78492188 2.98117187 2.93359375 2.74609375 C1 2 1 2 0 0 Z " fill="#E1E1E1" transform="translate(168,618)"/>
<path d="M0 0 C4.25526232 4.89355167 7.17126007 11.57726552 8 18 C4.9851365 15.09378023 2.34394645 12.03566551 -0.25 8.75 C-0.95640625 7.85796875 -1.6628125 6.9659375 -2.390625 6.046875 C-3.18726563 5.03367187 -3.18726563 5.03367187 -4 4 C-2.68 2.68 -1.36 1.36 0 0 Z " fill="#1F1F1F" transform="translate(695,490)"/>
<path d="M0 0 C1.66968166 3.33936332 -0.09051621 6.59928316 -1.125 10 C-1.32609375 10.73734375 -1.5271875 11.4746875 -1.734375 12.234375 C-3.3749021 17.65009097 -3.3749021 17.65009097 -6.6796875 19.5 C-7.82824219 19.7475 -7.82824219 19.7475 -9 20 C-9 16.11820738 -8.85153352 15.24430772 -7.03125 12.109375 C-6.42216797 11.04589844 -6.42216797 11.04589844 -5.80078125 9.9609375 C-5.37152344 9.23132813 -4.94226563 8.50171875 -4.5 7.75 C-4.07074219 7.00492188 -3.64148438 6.25984375 -3.19921875 5.4921875 C-2.14046836 3.65702016 -1.071238 1.8279061 0 0 Z " fill="#242425" transform="translate(709,576)"/>
<path d="M0 0 C1.01126953 0.41378906 1.01126953 0.41378906 2.04296875 0.8359375 C5.4415473 2.17381915 8.87071093 3.40268239 12.3125 4.625 C12.95767578 4.85445312 13.60285156 5.08390625 14.26757812 5.3203125 C15.84474179 5.8810818 17.42232784 6.44066291 19 7 C19 7.33 19 7.66 19 8 C15.89787812 9.40473444 14.33517447 10.10373793 11 10 C6.91082531 7.83482756 3.35629228 5.18354194 0 2 C0 1.34 0 0.68 0 0 Z " fill="#D0D0D0" transform="translate(315,534)"/>
<path d="M0 0 C-2.75361142 2.75361142 -5.99845364 3.47414027 -9.625 4.625 C-10.68460938 4.96917969 -10.68460938 4.96917969 -11.765625 5.3203125 C-13.50866945 5.88562421 -15.25411416 6.44352544 -17 7 C-17.33 5.68 -17.66 4.36 -18 3 C-11.91366593 0.82630926 -6.46545831 -0.15393948 0 0 Z " fill="#E6E8E7" transform="translate(1083,617)"/>
<path d="M0 0 C-0.61488281 0.09796875 -1.22976563 0.1959375 -1.86328125 0.296875 C-6.99409305 1.13291046 -6.99409305 1.13291046 -11.0625 4.125 C-11.371875 4.74375 -11.68125 5.3625 -12 6 C-14.31 5.34 -16.62 4.68 -19 4 C-19 3.34 -19 2.68 -19 2 C-16.58525383 1.46839543 -14.16891893 0.94945234 -11.75 0.4375 C-11.06808594 0.28603516 -10.38617187 0.13457031 -9.68359375 -0.02148438 C-6.18230962 -0.75233495 -3.39701827 -1.32203546 0 0 Z " fill="#C9C9C9" transform="translate(880,655)"/>
<path d="M0 0 C10.23 0 20.46 0 31 0 C31 0.33 31 0.66 31 1 C30.25314941 1.01458252 29.50629883 1.02916504 28.73681641 1.04418945 C25.36567748 1.11847946 21.99554995 1.21520199 18.625 1.3125 C17.449375 1.33505859 16.27375 1.35761719 15.0625 1.38085938 C13.94101562 1.41630859 12.81953125 1.45175781 11.6640625 1.48828125 C10.62717285 1.51446533 9.5902832 1.54064941 8.52197266 1.56762695 C7.68972168 1.71031006 6.8574707 1.85299316 6 2 C5.01 3.485 5.01 3.485 4 5 C2.68 3.35 1.36 1.7 0 0 Z " fill="#EFEFEE" transform="translate(425,874)"/>
<path d="M0 0 C6.35987804 -0.20190089 11.85221129 0.3722167 18 2 C14.71536341 4.18975773 11.79303725 4.99806563 8 6 C7.67 4.35 7.34 2.7 7 1 C4.69 1 2.38 1 0 1 C0 0.67 0 0.34 0 0 Z " fill="#CECECD" transform="translate(358,647)"/>
<path d="M0 0 C0.66 0.33 1.32 0.66 2 1 C-2.13882676 6.3651458 -6.6348542 10.86117324 -12 15 C-12.66 14.67 -13.32 14.34 -14 14 C-9.38 9.38 -4.76 4.76 0 0 Z " fill="#29292A" transform="translate(753,962)"/>
<path d="M0 0 C2 1.375 2 1.375 4 3 C4 3.66 4 4.32 4 5 C4.99 5.33 5.98 5.66 7 6 C3.29218328 7.23593891 2.32489747 6.5678132 -1.1875 5.0625 C-2.08855469 4.68222656 -2.98960937 4.30195313 -3.91796875 3.91015625 C-4.60503906 3.60980469 -5.29210937 3.30945313 -6 3 C-4 2 -2 1 0 0 Z " fill="#383839" transform="translate(469,454)"/>
<path d="M0 0 C1.32 1.65 2.64 3.3 4 5 C1.69 7.64 -0.62 10.28 -3 13 C-4 11 -4 11 -3.22265625 8.3984375 C-2.83980469 7.40070312 -2.45695313 6.40296875 -2.0625 5.375 C-1.68222656 4.37210938 -1.30195312 3.36921875 -0.91015625 2.3359375 C-0.60980469 1.56507813 -0.30945313 0.79421875 0 0 Z " fill="#262525" transform="translate(651,858)"/>
<path d="M0 0 C0.33 0.99 0.66 1.98 1 3 C-2.63 6.3 -6.26 9.6 -10 13 C-10.66 12.67 -11.32 12.34 -12 12 C-8.04 8.04 -4.08 4.08 0 0 Z " fill="#171717" transform="translate(737,979)"/>
<path d="M0 0 C7.59 0 15.18 0 23 0 C21.68 1.32 20.36 2.64 19 4 C18.67 3.34 18.34 2.68 18 2 C12.06 1.67 6.12 1.34 0 1 C0 0.67 0 0.34 0 0 Z " fill="#E7E7E6" transform="translate(814,874)"/>
<path d="M0 0 C1.90318884 2.85478326 2.4619099 4.41941308 3.125 7.6875 C3.29257812 8.49574219 3.46015625 9.30398438 3.6328125 10.13671875 C3.75398437 10.75160156 3.87515625 11.36648438 4 12 C-0.94117647 7.38823529 -0.94117647 7.38823529 -2 4 C-1.125 1.75 -1.125 1.75 0 0 Z " fill="#323134" transform="translate(617,849)"/>
<path d="M0 0 C-1.26941497 3.91402949 -2.51167694 5.79072873 -6 8 C-6.66 7.34 -7.32 6.68 -8 6 C-7.0479279 4.99403703 -6.08812654 3.99538437 -5.125 3 C-4.59132813 2.443125 -4.05765625 1.88625 -3.5078125 1.3125 C-2 0 -2 0 0 0 Z " fill="#E4E4E4" transform="translate(717,998)"/>
<path d="M0 0 C-0.99 0.495 -0.99 0.495 -2 1 C-2 1.66 -2 2.32 -2 3 C-4.3125 3.6875 -4.3125 3.6875 -7 4 C-8.8125 2.5625 -8.8125 2.5625 -10 1 C-3.71428571 -1.42857143 -3.71428571 -1.42857143 0 0 Z " fill="#CCCBCB" transform="translate(801,700)"/>
<path d="M0 0 C4.62 0.66 9.24 1.32 14 2 C11 4 11 4 7.5625 3.75 C4.6232748 3.13121575 2.54301429 2.52580857 0 1 C0 0.67 0 0.34 0 0 Z " fill="#BBBBBB" transform="translate(168,618)"/>
<path d="M0 0 C0.66 0.33 1.32 0.66 2 1 C2 1.66 2 2.32 2 3 C4.475 3.99 4.475 3.99 7 5 C3.69564916 6.12377697 1.9493138 5.89554742 -1.25 4.5625 C-1.95640625 4.27503906 -2.6628125 3.98757813 -3.390625 3.69140625 C-3.92171875 3.46324219 -4.4528125 3.23507812 -5 3 C-2 1 -2 1 0 0 Z " fill="#3F3F3E" transform="translate(877,510)"/>
<path d="M0 0 C0.66 0.66 1.32 1.32 2 2 C-0.97 4.64 -3.94 7.28 -7 10 C-7.66 9.67 -8.32 9.34 -9 9 C-6.03 6.03 -3.06 3.06 0 0 Z " fill="#181818" transform="translate(802,911)"/>
<path d="M0 0 C0.66 0.33 1.32 0.66 2 1 C1.01 2.32 0.02 3.64 -1 5 C-3.97 4.505 -3.97 4.505 -7 4 C-4.66603411 2.44402274 -2.57343171 1.07918104 0 0 Z " fill="#323132" transform="translate(434,685)"/>
<path d="M0 0 C0.33 0 0.66 0 1 0 C1.31563182 5.26053037 0.66590937 8.44573816 -2 13 C-3.18771723 9.57056481 -2.80226223 7.62215325 -1.5625 4.25 C-1.27503906 3.45078125 -0.98757813 2.6515625 -0.69140625 1.828125 C-0.46324219 1.22484375 -0.23507812 0.6215625 0 0 Z " fill="#B5B4B6" transform="translate(701,604)"/>
<path d="M0 0 C2.31 1.98 4.62 3.96 7 6 C6.34 6.66 5.68 7.32 5 8 C2.5 5.6875 2.5 5.6875 0 3 C0 2.01 0 1.02 0 0 Z " fill="#0D0D0D" transform="translate(501,955)"/>
<path d="M0 0 C-1.39332574 3.36720387 -2.9789286 4.9859524 -6 7 C-6 5.68 -6 4.36 -6 3 C-2.78571429 0 -2.78571429 0 0 0 Z " fill="#1B1B1C" transform="translate(781,763)"/>
<path d="M0 0 C0 0.99 0 1.98 0 3 C-0.66 3.66 -1.32 4.32 -2 5 C-2.69748583 6.31747324 -3.36959957 7.64914193 -4 9 C-4.66 9 -5.32 9 -6 9 C-5.52797514 4.75177626 -3.03344482 2.80010291 0 0 Z " fill="#171717" transform="translate(961,665)"/>
<path d="M0 0 C0.66 0.33 1.32 0.66 2 1 C-1.625 5.875 -1.625 5.875 -5 7 C-4.1875 4.0625 -4.1875 4.0625 -3 1 C-2.01 0.67 -1.02 0.34 0 0 Z " fill="#171718" transform="translate(358,655)"/>
<path d="M0 0 C3.3 0 6.6 0 10 0 C6.81237635 2.12508244 4.73487777 2.5020163 1 3 C0.67 2.01 0.34 1.02 0 0 Z " fill="#EEEEED" transform="translate(366,649)"/>
<path d="M0 0 C0.66 0.66 1.32 1.32 2 2 C-0.31 4.64 -2.62 7.28 -5 10 C-5.66 9.67 -6.32 9.34 -7 9 C-4.69 6.03 -2.38 3.06 0 0 Z " fill="#D7D6D8" transform="translate(494,190)"/>
<path d="M0 0 C0.66 0.66 1.32 1.32 2 2 C-0.97 4.475 -0.97 4.475 -4 7 C-4.66 6.67 -5.32 6.34 -6 6 C-4.02 4.02 -2.04 2.04 0 0 Z " fill="#0D0D0E" transform="translate(785,929)"/>
<path d="M0 0 C0.99 0.33 1.98 0.66 3 1 C0.63707344 3.52588702 -0.66462511 4.88820837 -4 6 C-4 5.01 -4 4.02 -4 3 C-2.1875 1.25 -2.1875 1.25 0 0 Z " fill="#E3E2E3" transform="translate(730,774)"/>
<path d="M0 0 C-0.33 0.99 -0.66 1.98 -1 3 C-2.65 3.33 -4.3 3.66 -6 4 C-6 3.01 -6 2.02 -6 1 C-3 0 -3 0 0 0 Z " fill="#2B2C2C" transform="translate(826,742)"/>
<path d="M0 0 C-2.42115191 2.42115191 -3.64160525 2.60948898 -7 3 C-9.8125 2.5625 -9.8125 2.5625 -12 2 C-12 1.67 -12 1.34 -12 1 C-7.93631321 0.22596442 -4.13574827 -0.0984702 0 0 Z " fill="#B9B9B9" transform="translate(1083,617)"/>
<path d="M0 0 C2.08954032 4.17908064 2.16552619 4.80410573 1 9 C0.34 9 -0.32 9 -1 9 C-0.67 6.03 -0.34 3.06 0 0 Z " fill="#E5E5E6" transform="translate(709,578)"/>
<path d="M0 0 C-0.33 0.99 -0.66 1.98 -1 3 C-5.29 3 -9.58 3 -14 3 C-14 2.67 -14 2.34 -14 2 C-12.04200486 1.66468585 -10.08359226 1.33180857 -8.125 1 C-6.48917969 0.7215625 -6.48917969 0.7215625 -4.8203125 0.4375 C-2 0 -2 0 0 0 Z " fill="#A4A4A4" transform="translate(927,475)"/>
<path d="M0 0 C1.9451 2.91765 2.45276317 4.62537285 3 8 C1.02 6.68 -0.96 5.36 -3 4 C-2.01 2.68 -1.02 1.36 0 0 Z " fill="#3A3A3C" transform="translate(466,342)"/>
<path d="M0 0 C0.33 0.66 0.66 1.32 1 2 C1.66 2.33 2.32 2.66 3 3 C2.319375 3.61875 2.319375 3.61875 1.625 4.25 C-0.05950374 6.06408095 -0.99265971 7.75285627 -2 10 C-3 8 -3 8 -2.44140625 6.0546875 C-2.15136719 5.33539063 -1.86132812 4.61609375 -1.5625 3.875 C-1.27503906 3.15054688 -0.98757813 2.42609375 -0.69140625 1.6796875 C-0.46324219 1.12539062 -0.23507812 0.57109375 0 0 Z " fill="#D2D1D3" transform="translate(465,238)"/>
<path d="M0 0 C1.98 0 3.96 0 6 0 C5.67 1.65 5.34 3.3 5 5 C3.35 3.35 1.7 1.7 0 0 Z " fill="#E1DFE0" transform="translate(425,874)"/>
<path d="M0 0 C1.32 0 2.64 0 4 0 C3.34 1.32 2.68 2.64 2 4 C1.01 4 0.02 4 -1 4 C-0.67 2.68 -0.34 1.36 0 0 Z " fill="#EBEBEB" transform="translate(921,477)"/>
</svg>
